<svg width="177px" height="26px" viewBox="0 0 177 26" version="1.1" xmlns="http://www.w3.org/2000/svg" xmlns:xlink="http://www.w3.org/1999/xlink">
    <g id="Symbols" stroke="none" stroke-width="1" fill="none" fill-rule="evenodd">
        <g id="Logo/Lastminute_RGB" fill="#EC008C">
            <g id="Lastminute_RGB" transform="translate(5.000000, 5.000000)">
                <path d="M6.51726799,17.6070244 C6.06124806,17.5731755 5.6983126,17.4979557 5.42846163,17.3794846 C5.15861066,17.2619537 4.95175626,17.1101037 4.80789843,16.9234646 C4.66498084,16.7382359 4.56813537,16.510226 4.51689189,16.2399049 C4.46658866,15.970524 4.44120198,15.6668241 4.44120198,15.3292754 L4.44120198,0.8222 L0.6694,1.43006987 L0.6694,16.088525 C0.6694,16.7974715 0.740858794,17.4340189 0.884246505,17.9995777 C1.02716409,18.5656065 1.29795531,19.046543 1.69426954,19.4428572 C2.09105389,19.8396416 2.63122596,20.1480427 3.31478574,20.3671203 C3.99834551,20.5857278 4.88781944,20.7037288 5.98508803,20.7211234 L6.51726799,17.6070244 Z M11.9979694,17.4932545 C11.6016552,17.2657146 11.403263,16.8567071 11.403263,16.2657617 C11.403263,15.9615917 11.4700206,15.708195 11.6058863,15.5060419 C11.7403417,15.3038887 11.9260405,15.1431064 12.1625127,15.0246352 C12.3989849,14.9071043 12.673067,14.8267132 12.9852291,14.7848722 C13.2973912,14.7430312 13.6311789,14.7214055 13.9851821,14.7214055 C14.2385787,14.7214055 14.5168919,14.7383299 14.8205918,14.7717087 C15.1247618,14.8055576 15.3523016,14.8398766 15.5036814,14.8732554 L15.5036814,17.7339578 C15.3019984,17.7678067 15.0321474,17.7931934 14.6941285,17.8096477 C14.3565797,17.8265721 14.0021065,17.8355045 13.6311789,17.8355045 C12.9382167,17.8355045 12.3942836,17.7212645 11.9979694,17.4932545 L11.9979694,17.4932545 Z M12.0233561,6.86093819 C11.593193,6.90324932 11.1837153,6.95308242 10.7953931,7.012318 C10.407071,7.07155358 10.0488368,7.13925138 9.72022037,7.21541141 C9.39066369,7.2906312 9.11611149,7.36256011 8.89750399,7.43025792 L9.37797035,10.4681969 C9.83352016,10.2998926 10.3736922,10.168258 10.9980164,10.0761138 C11.6228107,9.98349942 12.255127,9.93648706 12.8968458,9.93648706 C13.8582487,9.93648706 14.5338163,10.1306481 14.9221385,10.5185001 C15.3099905,10.9072924 15.5036814,11.4216076 15.5036814,12.0628563 L15.5036814,12.4173295 C15.2676793,12.350572 14.9602185,12.2955675 14.5803586,12.2532564 C14.2004987,12.2114154 13.7656343,12.1897897 13.2767057,12.1897897 C12.5508348,12.1897897 11.8498805,12.2612485 11.175253,12.4051063 C10.5001555,12.548494 9.90074784,12.7807351 9.37797035,13.1008893 C8.85472274,13.4215136 8.43678282,13.8521469 8.12462072,14.3923189 C7.8119885,14.932491 7.65637758,15.5906641 7.65637758,16.3668382 C7.65637758,17.1768613 7.79130306,17.8604211 8.06115403,18.4170474 C8.331005,18.9746141 8.72026738,19.4264029 9.22612042,19.7719438 C9.73244358,20.1174847 10.3351421,20.3671203 11.0360964,20.5189703 C11.7365807,20.6708202 12.5169859,20.74604 13.3777823,20.74604 C14.7449019,20.74604 15.9098682,20.666119 16.8712711,20.5058068 C17.8331441,20.3459648 18.5844016,20.2068082 19.1245737,20.088337 L19.1245737,12.2400929 C19.1245737,11.4136155 19.0314892,10.662358 18.8462605,9.98679029 C18.6596214,9.31263298 18.3436983,8.73814189 17.8966108,8.26519751 C17.4495232,7.79319337 16.8543466,7.43025792 16.1115513,7.1773314 C15.3687559,6.92393476 14.4416721,6.79700137 13.327009,6.79700137 C12.8879135,6.79700137 12.4535192,6.81815694 12.0233561,6.86093819 L12.0233561,6.86093819 Z M23.3528658,17.5440278 C22.676828,17.4011103 22.0186549,17.2017778 21.3778763,16.9493214 L20.7446198,20.0126471 C21.0478495,20.1480427 21.5927228,20.3158768 22.3778293,20.5189703 C23.1624657,20.7211234 24.1450241,20.8222 25.3269149,20.8222 C27.13313,20.8222 28.5293972,20.4855915 29.5166568,19.8123744 C30.5039165,19.1382171 30.9975463,18.1448459 30.9975463,16.8313204 C30.9975463,16.2756343 30.9345497,15.7871758 30.8076164,15.3664151 C30.6811531,14.9451843 30.4616054,14.5625037 30.1494433,14.2169628 C29.8372812,13.8718921 29.410879,13.5507976 28.8711771,13.2527392 C28.3314751,12.955151 27.6469751,12.6523913 26.8209679,12.3463408 C26.414781,12.1940208 26.0814634,12.0534538 25.8210149,11.9255802 C25.5586859,11.7981767 25.3527717,11.6797055 25.1999815,11.5696966 C25.0486017,11.4596877 24.9465849,11.3454476 24.8962817,11.2274466 C24.8459784,11.1094455 24.8205918,10.9745201 24.8205918,10.8226701 C24.8205918,10.1640269 25.4115372,9.83494035 26.5920176,9.83494035 C27.2342065,9.83494035 27.8119885,9.89417593 28.3267739,10.012177 C28.8420294,10.1306481 29.3182647,10.2651035 29.7573601,10.4174235 L30.4155332,7.48056115 C29.9769079,7.31272701 29.3864326,7.15617584 28.6436372,7.012318 C27.9008419,6.86940041 27.1241976,6.79700137 26.3141746,6.79700137 C24.6941285,6.79700137 23.4196233,7.16040695 22.4915992,7.88627785 C21.563105,8.61214876 21.099093,9.59893828 21.099093,10.8480568 C21.099093,11.4897756 21.1917074,12.0379397 21.3778763,12.4934895 C21.563105,12.9490394 21.8249639,13.3411225 22.1625127,13.670209 C22.4995913,13.9997657 22.909069,14.28231 23.3900055,14.5183121 C23.8704719,14.7552544 24.406883,14.9827942 24.9982985,15.2018719 C25.7570781,15.4895875 26.3226368,15.746275 26.6940345,15.9747551 C27.064962,16.2018248 27.2506609,16.4683849 27.2506609,16.7716147 C27.2506609,17.1599368 27.1072732,17.4217957 26.8209679,17.5567212 C26.5332522,17.6916467 26.0438535,17.7593445 25.3527717,17.7593445 C24.6941285,17.7593445 24.0265529,17.6874156 23.3528658,17.5440278 L23.3528658,17.5440278 Z M32.4149691,15.0246352 C32.4149691,15.8854316 32.4948901,16.6705381 32.6556724,17.3794846 C32.8159846,18.088431 33.0985289,18.6920698 33.5037754,19.1899307 C33.909022,19.6873215 34.4482538,20.0751735 35.1238215,20.3539569 C35.7989191,20.6327402 36.6512532,20.7718968 37.6803539,20.7718968 C38.490847,20.7718968 39.1744068,20.7037288 39.7319735,20.5688034 C40.2885998,20.434348 40.794923,20.2740358 41.2504728,20.088337 L40.718763,17.1519447 C40.3642898,17.2868702 39.9722066,17.3917078 39.5415734,17.4683379 C39.1114102,17.5440278 38.6934703,17.5821079 38.2886939,17.5821079 C37.4443518,17.5821079 36.8834943,17.3461058 36.6051811,16.8731614 C36.3259277,16.4011573 36.1872412,15.7674306 36.1872412,14.9748021 L36.1872412,10.2909603 L40.718763,10.2909603 L40.718763,7.1514746 L36.1872412,7.1514746 L36.1872412,3.22782268 L32.4149691,3.83569255 L32.4149691,15.0246352 Z M50.3389031,20.4677268 L54.1107051,20.4677268 L54.1107051,13.2019659 C54.1107051,12.7125672 54.0933105,12.2532564 54.0604018,11.8226231 C54.0265529,11.39246 53.9503929,10.9834524 53.832862,10.5946602 C54.0688641,10.4423401 54.3678627,10.316347 54.7317384,10.2152704 C55.0932635,10.1137237 55.376748,10.0634204 55.5789012,10.0634204 C56.3381509,10.0634204 56.8731516,10.316347 57.1862539,10.8226701 C57.4988862,11.3289933 57.6549672,12.1897897 57.6549672,13.4050593 L57.6549672,20.4677268 L61.4267692,20.4677268 L61.4267692,12.9490394 C61.4267692,12.0379397 61.3506092,11.2109923 61.1992293,10.4681969 C61.0464392,9.72587167 60.7685961,9.08462302 60.3633495,8.54398083 C59.9585731,8.00427889 59.4141699,7.58680909 58.7310802,7.2906312 C58.0470503,6.99539355 57.1735606,6.84824485 56.1101409,6.84824485 C55.5191955,6.84824485 54.8741859,6.95778366 54.1741718,7.1773314 C53.4736875,7.39687914 52.8531243,7.70010889 52.3129523,8.0879609 C51.9255704,7.75135237 51.4314704,7.45940559 50.833003,7.21541141 C50.2331253,6.970477 49.45272,6.84824485 48.4903769,6.84824485 C48.0009782,6.84824485 47.5035874,6.86940041 46.9967941,6.91124142 C46.4904709,6.95308242 45.9968411,7.012318 45.5154345,7.08800791 C45.0354383,7.16463806 44.5798885,7.24879019 44.1487851,7.34187467 C43.7186219,7.43495916 43.3429932,7.52287228 43.022839,7.60749453 L43.022839,20.4677268 L46.7946409,20.4677268 L46.7946409,10.1894136 C47.030643,10.1560348 47.2755774,10.1259469 47.5285039,10.1010303 C47.7819006,10.0761138 48.026835,10.0634204 48.2628371,10.0634204 C49.0220868,10.0634204 49.5584978,10.316347 49.8706599,10.8226701 C50.182822,11.3289933 50.3389031,12.1897897 50.3389031,13.4050593 L50.3389031,20.4677268 Z M63.8314516,20.4677268 L67.6037237,20.4677268 L67.6037237,7.1514746 L63.8314516,7.1514746 L63.8314516,20.4677268 Z M67.2878006,1.67077317 C66.8407131,1.27398882 66.3127642,1.07559664 65.7058346,1.07559664 C65.0979647,1.07559664 64.5700159,1.27398882 64.1224582,1.67077317 C63.6753706,2.06755753 63.452532,2.61196071 63.452532,3.30398271 C63.452532,3.99553459 63.6753706,4.54040789 64.1224582,4.936252 C64.5700159,5.33350647 65.0979647,5.53189865 65.7058346,5.53189865 C66.3127642,5.53189865 66.8407131,5.33350647 67.2878006,4.936252 C67.7348882,4.54040789 67.958197,3.99553459 67.958197,3.30398271 C67.958197,2.61196071 67.7348882,2.06755753 67.2878006,1.67077317 L67.2878006,1.67077317 Z M70.1348694,20.4677268 L73.9071415,20.4677268 L73.9071415,10.1894136 C74.1440838,10.1560348 74.4139348,10.1259469 74.7171646,10.1010303 C75.0218047,10.0761138 75.30811,10.0634204 75.5784311,10.0634204 C76.4561519,10.0634204 77.0546193,10.316347 77.3761839,10.8226701 C77.6953978,11.3289933 77.8561801,12.1897897 77.8561801,13.4050593 L77.8561801,20.4677268 L81.6284522,20.4677268 L81.6284522,12.9490394 C81.6284522,12.0379397 81.5353677,11.2109923 81.350139,10.4681969 C81.1644402,9.72587167 80.8522781,9.08462302 80.4136527,8.54398083 C79.9745573,8.00427889 79.3793807,7.58680909 78.6285933,7.2906312 C77.8773357,6.99539355 76.9370884,6.84824485 75.8059709,6.84824485 C74.692248,6.84824485 73.6288283,6.92863599 72.616182,7.08800791 C71.6030656,7.24879019 70.7761181,7.42179569 70.1348694,7.60749453 L70.1348694,20.4677268 Z M95.4007243,7.1514746 L91.6284522,7.1514746 L91.6284522,17.4302579 C91.3915099,17.4641068 91.1225992,17.4932545 90.8179591,17.5191113 C90.5147293,17.5440278 90.2274838,17.5567212 89.9571627,17.5567212 C89.0794418,17.5567212 88.4809744,17.2868702 88.1594099,16.746228 C87.8392557,16.2069962 87.6794136,15.3292754 87.6794136,14.1140057 L87.6794136,7.1514746 L83.9062013,7.1514746 L83.9062013,14.5695556 C83.9062013,15.4811253 83.9992858,16.3160649 84.1854547,17.0757847 C84.3711536,17.8355045 84.6833157,18.4889764 85.121941,19.0376107 C85.5610365,19.5862449 86.156213,20.0126471 86.9070005,20.3158768 C87.6582581,20.6200468 88.5985054,20.7718968 89.7296228,20.7718968 C90.8433457,20.7718968 91.9067654,20.6915056 92.9194118,20.5311935 C93.9325282,20.3708813 94.7585354,20.1978758 95.4007243,20.0126471 L95.4007243,7.1514746 Z M97.8054068,15.0246352 C97.8054068,15.8854316 97.8853278,16.6705381 98.0461101,17.3794846 C98.205482,18.088431 98.4884964,18.6920698 98.8932729,19.1899307 C99.2994597,19.6873215 99.8391616,20.0751735 100.514259,20.3539569 C101.188887,20.6327402 102.041221,20.7718968 103.071262,20.7718968 C103.881285,20.7718968 104.564374,20.7037288 105.121471,20.5688034 C105.679038,20.434348 106.184891,20.2740358 106.64044,20.088337 L106.108731,17.1519447 C105.754257,17.2868702 105.362174,17.3917078 104.931541,17.4683379 C104.501848,17.5440278 104.082968,17.5821079 103.679132,17.5821079 C102.834319,17.5821079 102.273462,17.3461058 101.995149,16.8731614 C101.716835,16.4011573 101.577209,15.7674306 101.577209,14.9748021 L101.577209,10.2909603 L106.108731,10.2909603 L106.108731,7.1514746 L101.577209,7.1514746 L101.577209,3.22782268 L97.8054068,3.83569255 L97.8054068,15.0246352 Z M107.690697,16.6456216 C107.96995,17.4890234 108.399643,18.2191254 108.981656,18.8354575 C109.564139,19.4513195 110.298472,19.9364871 111.184656,20.2904902 C112.070839,20.6449634 113.112633,20.8222 114.310978,20.8222 C114.783922,20.8222 115.255926,20.7972834 115.728871,20.74604 C116.200875,20.6962069 116.644201,20.6327402 117.05838,20.5570503 C117.471619,20.4808902 117.847248,20.3915667 118.184326,20.2904902 C118.521875,20.1898837 118.791726,20.088337 118.993879,19.9872604 L118.488026,16.9234646 C118.066796,17.1101037 117.521922,17.2657146 116.855287,17.3917078 C116.187711,17.5191113 115.509323,17.5821079 114.816831,17.5821079 C113.737427,17.5821079 112.87569,17.3540979 112.234912,16.8985481 C111.594133,16.4429983 111.230258,15.8266662 111.147046,15.050492 L119.703766,15.050492 C119.72022,14.8473986 119.736675,14.6156277 119.754069,14.3542389 C119.770994,14.0928502 119.778986,13.8521469 119.778986,13.6325991 C119.778986,11.3882289 119.230822,9.68779165 118.133553,8.53175761 C117.036284,7.37572358 115.542232,6.79700137 113.652805,6.79700137 C112.842782,6.79700137 112.052974,6.94932143 111.285732,7.25302131 C110.51802,7.5571913 109.838692,8.00427889 109.248216,8.59475418 C108.656801,9.18522948 108.180095,9.92426384 107.81763,10.8095067 C107.453754,11.6956897 107.273227,12.7294916 107.273227,13.9109123 C107.273227,14.8897098 107.412383,15.8017496 107.690697,16.6456216 L107.690697,16.6456216 Z M111.147046,12.4681029 C111.197349,12.1474785 111.27727,11.8310853 111.386809,11.5184531 C111.496818,11.206291 111.652899,10.9322089 111.855992,10.6957367 C112.057675,10.4597347 112.311072,10.2702748 112.615242,10.1259469 C112.918001,9.98349942 113.281877,9.91110038 113.703108,9.91110038 C114.142203,9.91110038 114.50937,9.98679029 114.805078,10.1391103 C115.099845,10.2909603 115.34478,10.4851213 115.538941,10.7215935 C115.732632,10.9580657 115.876489,11.2274466 115.969574,11.5316166 C116.062188,11.8348463 116.117193,12.1474785 116.133647,12.4681029 L111.147046,12.4681029 Z M124.906154,16.7340048 C124.425218,16.3372205 123.880815,16.1388283 123.272945,16.1388283 C122.666015,16.1388283 122.121612,16.3372205 121.640205,16.7340048 C121.159269,17.1307892 120.918566,17.708101 120.918566,18.4682909 C120.918566,19.2275406 121.159269,19.8057927 121.640205,20.202577 C122.121612,20.5988913 122.666015,20.7972834 123.272945,20.7972834 C123.880815,20.7972834 124.425218,20.5988913 124.906154,20.202577 C125.387561,19.8057927 125.627324,19.2275406 125.627324,18.4682909 C125.627324,17.708101 125.387561,17.1307892 124.906154,16.7340048 L124.906154,16.7340048 Z M126.652664,16.5821549 C126.914522,17.4340189 127.327761,18.1730533 127.89332,18.7973775 C128.457938,19.4221718 129.179578,19.9158016 130.057299,20.2777968 C130.93549,20.6407323 131.981045,20.8222 133.196785,20.8222 C133.990353,20.8222 134.715754,20.7549723 135.373927,20.6200468 C136.0321,20.4846512 136.580265,20.3248092 137.01936,20.1386402 L136.48765,17.050398 C136.049025,17.2360969 135.567618,17.3714925 135.045311,17.4551745 C134.521593,17.5402669 134.032194,17.5821079 133.577115,17.5821079 C132.293207,17.5821079 131.394331,17.2530213 130.880015,16.5943781 C130.36523,15.9366751 130.108072,15.0081809 130.108072,13.8098357 C130.108072,12.6796585 130.382625,11.7680888 130.930789,11.0760668 C131.478953,10.3835746 132.310602,10.0380338 133.424325,10.0380338 C133.948042,10.0380338 134.420046,10.088337 134.842217,10.1894136 C135.263918,10.2909603 135.65224,10.4094314 136.006714,10.5443569 L136.79182,7.53180463 C136.234254,7.29533243 135.660233,7.11339458 135.069757,6.98740145 C134.479752,6.86093819 133.829571,6.79700137 133.120625,6.79700137 C132.03981,6.79700137 131.078408,6.98364046 130.234536,7.35456801 C129.390664,7.72596569 128.672785,8.22758762 128.08231,8.86084416 C127.491834,9.49363059 127.040045,10.2364259 126.727883,11.08829 C126.415721,11.9410943 126.25964,12.8474927 126.25964,13.8098357 C126.25964,14.8055576 126.391275,15.7298207 126.652664,16.5821549 L126.652664,16.5821549 Z M150.386856,10.9242168 C150.066231,10.0634204 149.618204,9.32908731 149.044183,8.72168757 C148.470162,8.11334757 147.782371,7.64134343 146.98175,7.30332454 C146.179249,6.96624588 145.297767,6.79700137 144.335424,6.79700137 C143.390946,6.79700137 142.516516,6.96624588 141.715895,7.30332454 C140.913394,7.64134343 140.221842,8.11334757 139.639829,8.72168757 C139.057816,9.32908731 138.601326,10.0634204 138.27271,10.9242168 C137.944093,11.7850132 137.77861,12.738424 137.77861,13.7849192 C137.77861,14.8309443 137.939392,15.7885862 138.260016,16.6583149 C138.580171,17.5275735 139.027258,18.2698987 139.601279,18.8852906 C140.1753,19.5020928 140.863091,19.9783281 141.665592,20.3158768 C142.467153,20.6538957 143.356627,20.8222 144.335424,20.8222 C145.332086,20.8222 146.230963,20.6538957 147.032524,20.3158768 C147.834084,19.9783281 148.521875,19.5020928 149.095426,18.8852906 C149.668507,18.2698987 150.108542,17.5275735 150.411302,16.6583149 C150.715472,15.7885862 150.866852,14.8309443 150.866852,13.7849192 C150.866852,12.738424 150.70701,11.7850132 150.386856,10.9242168 L150.386856,10.9242168 Z M146.322637,16.5567682 C145.859095,17.2398578 145.196691,17.5821079 144.335424,17.5821079 C143.475098,17.5821079 142.808463,17.2398578 142.335988,16.5567682 C141.863984,15.8732084 141.627042,14.9489453 141.627042,13.7849192 C141.627042,12.6204229 141.863984,11.7050922 142.335988,11.0379868 C142.808463,10.3713514 143.475098,10.0380338 144.335424,10.0380338 C145.196691,10.0380338 145.859095,10.3713514 146.322637,11.0379868 C146.787119,11.7050922 147.01936,12.6204229 147.01936,13.7849192 C147.01936,14.9489453 146.787119,15.8732084 146.322637,16.5567682 L146.322637,16.5567682 Z M160.083156,20.4677268 L163.854018,20.4677268 L163.854018,13.2019659 C163.854018,12.7125672 163.837563,12.2532564 163.804655,11.8226231 C163.769395,11.39246 163.694176,10.9834524 163.575704,10.5946602 C163.811706,10.4423401 164.112115,10.316347 164.474581,10.2152704 C164.837516,10.1137237 165.120061,10.0634204 165.323154,10.0634204 C166.082404,10.0634204 166.617874,10.316347 166.930977,10.8226701 C167.242199,11.3289933 167.39828,12.1897897 167.39828,13.4050593 L167.39828,20.4677268 L171.171022,20.4677268 L171.171022,12.9490394 C171.171022,12.0379397 171.094862,11.2109923 170.942542,10.4681969 C170.791162,9.72587167 170.512849,9.08462302 170.108072,8.54398083 C169.702826,8.00427889 169.158423,7.58680909 168.474393,7.2906312 C167.791303,6.99539355 166.918283,6.84824485 165.854864,6.84824485 C165.263448,6.84824485 164.617968,6.95778366 163.918424,7.1773314 C163.21794,7.39687914 162.596907,7.70010889 162.057205,8.0879609 C161.668883,7.75135237 161.175723,7.45940559 160.575845,7.21541141 C159.977378,6.970477 159.196973,6.84824485 158.23463,6.84824485 C157.745231,6.84824485 157.24643,6.86940041 156.740577,6.91124142 C156.233783,6.95308242 155.740624,7.012318 155.259687,7.08800791 C154.778281,7.16463806 154.323201,7.24879019 153.892568,7.34187467 C153.462875,7.43495916 153.086306,7.52287228 152.765681,7.60749453 L152.765681,20.4677268 L156.538424,20.4677268 L156.538424,10.1894136 C156.774426,10.1560348 157.01983,10.1259469 157.272287,10.1010303 C157.525683,10.0761138 157.770147,10.0634204 158.00709,10.0634204 C158.766339,10.0634204 159.30134,10.316347 159.613972,10.8226701 C159.926135,11.3289933 160.083156,12.1897897 160.083156,13.4050593 L160.083156,20.4677268 L160.083156,20.4677268 Z" id="Fill-2"></path>
            </g>
        </g>
    </g>
</svg>
